<svg version="1.1" id="frame-1" xmlns="http://www.w3.org/2000/svg" xmlns:xlink="http://www.w3.org/1999/xlink" x="0px" y="0px"
     viewBox="0 0 1400 980" enable-background="new 0 0 1400 980" xml:space="preserve">
<g>
    <path fill-rule="evenodd" clip-rule="evenodd" fill="#444242" d="M42.4,357v-52.7h-2.9V357H42.4z M48.2,332.2v-1.6v-1.5v-18.6
			h14.6V326h-8.8v-3.1v-3.1v-3.1H57v3.1v3.1h2.9v-9.3h-8.8v6.2v3.1v6.2h2.9h8.8h2.9V326v-15.5v-3.1h-2.9H48.2h-2.9v3.1v18.6v1.5v1.6
			v6.2v12.4v3.1h2.9h14.6h2.9v-3.1v-12.4v-3.1v-3.1h-2.9h-8.8h-2.9v6.2v3.1v6.2h8.8v-9.3H57v3.1v3.1h-2.9v-3.1v-3.1v-3.1h8.8v3.1
			v12.4H48.2v-12.4V332.2z M86.3,332.2v-1.6v-1.5v-18.6H71.7V326h8.8v-3.1v-3.1v-3.1h-2.9v3.1v3.1h-2.9v-9.3h8.8v6.2v3.1v6.2h-2.9
			h-8.8h-2.9V326v-15.5v-3.1h2.9h14.6h2.9v3.1v18.6v1.5v1.6v6.2v12.4v3.1h-2.9H71.7h-2.9v-3.1v-12.4v-3.1v-3.1h2.9h8.8h2.9v6.2v3.1
			v6.2h-8.8v-9.3h2.9v3.1v3.1h2.9v-3.1v-3.1v-3.1h-8.8v3.1v12.4h14.6v-12.4V332.2z M95.1,357v-52.7h-2.9V357H95.1z"/>
</g>
</svg>
